<?xml version="1.0" encoding="iso-8859-1"?>
<!-- Generator: Adobe Illustrator 18.0.0, SVG Export Plug-In . SVG Version: 6.00 Build 0)  -->
<!DOCTYPE svg PUBLIC "-//W3C//DTD SVG 1.1//EN" "http://www.w3.org/Graphics/SVG/1.1/DTD/svg11.dtd">
<svg version="1.1" id="Capa_1" xmlns="http://www.w3.org/2000/svg" xmlns:xlink="http://www.w3.org/1999/xlink" x="0px" y="0px"
	 viewBox="0 0 405.609 405.609" style="enable-background:new 0 0 405.609 405.609;" xml:space="preserve">
<g>
	<path d="M397.816,314.225l-68.697-68.697c-5.084-5.085-11.717-7.675-18.381-7.781c25.771-38.397,21.711-91.015-12.197-124.922
		c-38.529-38.53-101.221-38.53-139.75,0c-38.529,38.529-38.529,101.221,0,139.75c33.908,33.907,86.523,37.969,124.922,12.196
		c0.107,6.665,2.695,13.297,7.781,18.382l68.697,68.697c10.391,10.391,27.234,10.391,37.625,0S408.207,324.614,397.816,314.225z
		 M277.041,231.074c-26.674,26.675-70.076,26.675-96.75,0c-26.675-26.674-26.675-70.076,0-96.75
		c26.674-26.674,70.076-26.674,96.75,0C303.715,160.998,303.715,204.4,277.041,231.074z"/>
	<path d="M38.497,135.967H20c-11.046,0-20,8.954-20,20v110.135c0,11.046,8.954,20,20,20h18.497c11.046,0,20-8.954,20-20V155.967
		C58.497,144.921,49.543,135.967,38.497,135.967z"/>
	<path d="M148.497,105.679V65.967c0-11.046-8.954-20-20-20H110c-11.046,0-20,8.954-20,20v200.135c0,11.046,8.954,20,20,20h18.497
		c11.046,0,20-8.954,20-20v-9.884c-19.484-20.323-30.189-46.957-30.189-75.27S129.013,126.002,148.497,105.679z"/>
	<path d="M218.498,135.967H200c-11.046,0-20,8.954-20,20v59.566c1.739,2.36,3.665,4.607,5.775,6.719
		c11.013,11.013,25.682,17.077,41.305,17.077c3.879,0,7.698-0.376,11.418-1.106v-82.256
		C238.498,144.921,229.544,135.967,218.498,135.967z"/>
</g>
<g>
</g>
<g>
</g>
<g>
</g>
<g>
</g>
<g>
</g>
<g>
</g>
<g>
</g>
<g>
</g>
<g>
</g>
<g>
</g>
<g>
</g>
<g>
</g>
<g>
</g>
<g>
</g>
<g>
</g>
</svg>
