<?xml version="1.0" encoding="iso-8859-1"?>
<!-- Generator: Adobe Illustrator 18.0.0, SVG Export Plug-In . SVG Version: 6.00 Build 0)  -->
<!DOCTYPE svg PUBLIC "-//W3C//DTD SVG 1.1//EN" "http://www.w3.org/Graphics/SVG/1.1/DTD/svg11.dtd">
<svg version="1.1" id="Capa_1" xmlns="http://www.w3.org/2000/svg" xmlns:xlink="http://www.w3.org/1999/xlink" x="0px" y="0px"
	 viewBox="0 0 381.639 381.639" style="enable-background:new 0 0 381.639 381.639;" xml:space="preserve">
<path d="M315.323,181.581h-32.976c-3.036,0-5.496,2.46-5.496,5.497v117.616c0,18.183-14.794,32.977-32.977,32.977h-51.015
	c-18.184,0-32.976-14.794-32.976-32.977v-46.167h0.134c30.306,0,54.961-24.655,54.961-54.962V79.354
	c0-3.036-2.461-5.495-5.496-5.495h-18.757V5.495c0-3.034-2.461-5.495-5.496-5.495h-10.322c-3.036,0-5.496,2.461-5.496,5.495V19.63
	c0,5.658-4.603,10.259-10.261,10.259c-5.656,0-10.259-4.601-10.259-10.259V5.495c0-3.034-2.46-5.495-5.496-5.495h-10.991
	c-3.035,0-5.496,2.461-5.496,5.495V19.63c0,5.658-4.603,10.259-10.261,10.259c-5.656,0-10.259-4.601-10.259-10.259V5.495
	c0-3.034-2.46-5.495-5.496-5.495H90.569c-3.035,0-5.496,2.461-5.496,5.495v68.363H66.315c-3.035,0-5.496,2.459-5.496,5.495v124.212
	c0,30.307,24.655,54.962,54.961,54.962h0.134v46.167c0,42.427,34.517,76.944,76.945,76.944h51.015
	c42.428,0,76.945-34.518,76.945-76.944V187.078C320.819,184.041,318.358,181.581,315.323,181.581z"/>
<g>
</g>
<g>
</g>
<g>
</g>
<g>
</g>
<g>
</g>
<g>
</g>
<g>
</g>
<g>
</g>
<g>
</g>
<g>
</g>
<g>
</g>
<g>
</g>
<g>
</g>
<g>
</g>
<g>
</g>
</svg>
