<?xml version="1.0" encoding="iso-8859-1"?>
<!-- Generator: Adobe Illustrator 18.0.0, SVG Export Plug-In . SVG Version: 6.00 Build 0)  -->
<!DOCTYPE svg PUBLIC "-//W3C//DTD SVG 1.1//EN" "http://www.w3.org/Graphics/SVG/1.1/DTD/svg11.dtd">
<svg version="1.1" id="Capa_1" xmlns="http://www.w3.org/2000/svg" xmlns:xlink="http://www.w3.org/1999/xlink" x="0px" y="0px"
	 viewBox="0 0 388.848 388.848" style="enable-background:new 0 0 388.848 388.848;" xml:space="preserve">
<g>
	<path d="M182.063,103.127c-7.371,0-14.469,1.15-21.135,3.272c-12.742-16.013-32.398-26.278-54.449-26.278
		c-34.672,0-63.414,25.367-68.689,58.552C15.352,150.214,0,173.595,0,200.565c0,38.416,31.143,69.556,69.555,69.556h155.787
		c8.537,0,16.715-1.541,24.268-4.355V135.379c-3.512-1.309-7.158-2.354-10.912-3.083
		C226.082,114.638,205.416,103.127,182.063,103.127z"/>
	<path d="M378.848,171.352h-78.402c-7.381-14.792-20.191-26.4-35.822-32.222v122.885c15.432-5.746,28.107-17.139,35.531-31.663
		h34.025v68.375c0,5.523,4.479,10,10,10c5.523,0,10-4.477,10-10v-78.375c0-5.522-4.477-10-10-10h-37.607
		c0.479-3.193,0.734-6.46,0.734-9.787c0-3.128-0.23-6.201-0.654-9.213h62.195v107.375c0,5.523,4.477,10,10,10
		c5.522,0,10-4.477,10-10V181.352C388.848,175.829,384.369,171.352,378.848,171.352z M275.994,171.211h9.971v1.417
		c-3.053,1.712-5.119,4.975-5.119,8.724c0,3.749,2.066,7.012,5.119,8.724v1.055h-9.971V171.211z M275.994,229.933v-19.919h9.971
		v1.614c-3.053,1.711-5.119,4.975-5.119,8.724c0,3.75,2.066,7.013,5.119,8.725v0.856H275.994z"/>
</g>
<g>
</g>
<g>
</g>
<g>
</g>
<g>
</g>
<g>
</g>
<g>
</g>
<g>
</g>
<g>
</g>
<g>
</g>
<g>
</g>
<g>
</g>
<g>
</g>
<g>
</g>
<g>
</g>
<g>
</g>
</svg>
