<?xml version="1.0" encoding="iso-8859-1"?>
<!-- Generator: Adobe Illustrator 18.0.0, SVG Export Plug-In . SVG Version: 6.00 Build 0)  -->
<!DOCTYPE svg PUBLIC "-//W3C//DTD SVG 1.1//EN" "http://www.w3.org/Graphics/SVG/1.1/DTD/svg11.dtd">
<svg version="1.1" id="Capa_1" xmlns="http://www.w3.org/2000/svg" xmlns:xlink="http://www.w3.org/1999/xlink" x="0px" y="0px"
	 viewBox="0 0 407.82 407.82" style="enable-background:new 0 0 407.82 407.82;" xml:space="preserve">
<g>
	<path d="M143.227,105.759c5.534-1.538,11.888-2.523,19.181-2.523h50.048c29.425,0,53.365,23.938,53.365,53.366v20.102
		c2.289,1.698,4.397,3.648,6.275,5.827c7.47,8.66,10.79,20.109,9.114,31.415l-3.837,25.9h25.266V334.6c0,7.18,5.82,13,13,13h79.182
		c7.18,0,13-5.82,13-13s-5.82-13-13-13h-66.182v-81.754h34.56c8.291,0,15.331-6.074,16.547-14.276l20.073-135.49
		c0.715-4.811-0.704-9.695-3.881-13.38c-2.976-3.45-7.226-5.527-11.751-5.774V36.041c0-16.994-13.827-30.82-30.821-30.82h-50.046
		c-16.652,0-25.496,7.032-31.951,12.168c-5.191,4.128-8.322,6.619-15.042,6.619h-72.323c-15.145,0-27.466,12.007-27.466,26.768
		v20.149c-4.524,0.247-8.773,2.324-11.75,5.774c-3.178,3.685-4.595,8.569-3.883,13.38L143.227,105.759z M176.678,50.775
		c0-4.148,3.725-6.628,7.325-6.628h72.323c13.753,0,21.418-6.097,27.579-10.997c5.686-4.521,9.795-7.789,19.414-7.789h50.046
		c5.89,0,10.682,4.791,10.682,10.68v34.858H176.678V50.775z"/>
	<path d="M394.82,376.6H142.638v-19.44h79.835c8.295,0,15.334-6.074,16.549-14.276l20.074-135.489
		c0.713-4.813-0.704-9.697-3.882-13.381c-2.979-3.45-7.225-5.526-11.749-5.775v-34.883c0-16.994-13.827-30.82-30.821-30.82h-50.047
		c-16.655,0-25.495,7.032-31.952,12.167c-5.191,4.127-8.322,6.62-15.042,6.62H43.279c-15.146,0-27.467,12.006-27.467,26.766v20.15
		c-4.523,0.249-8.772,2.325-11.749,5.775c-3.178,3.684-4.596,8.567-3.883,13.381l20.074,135.488
		c1.215,8.203,8.255,14.277,16.547,14.277h79.836v32.44c0,7.18,5.82,13,13,13H394.82c7.18,0,13-5.82,13-13S402,376.6,394.82,376.6z
		 M35.953,188.214v-20.127c0-4.148,3.725-6.626,7.326-6.626h72.323c13.753,0,21.419-6.097,27.579-10.997
		c5.684-4.523,9.793-7.789,19.415-7.789h50.047c5.886,0,10.679,4.789,10.679,10.68v34.859H35.953z"/>
</g>
<g>
</g>
<g>
</g>
<g>
</g>
<g>
</g>
<g>
</g>
<g>
</g>
<g>
</g>
<g>
</g>
<g>
</g>
<g>
</g>
<g>
</g>
<g>
</g>
<g>
</g>
<g>
</g>
<g>
</g>
</svg>
