<?xml version="1.0" encoding="iso-8859-1"?>
<!-- Generator: Adobe Illustrator 18.0.0, SVG Export Plug-In . SVG Version: 6.00 Build 0)  -->
<!DOCTYPE svg PUBLIC "-//W3C//DTD SVG 1.1//EN" "http://www.w3.org/Graphics/SVG/1.1/DTD/svg11.dtd">
<svg version="1.1" id="Capa_1" xmlns="http://www.w3.org/2000/svg" xmlns:xlink="http://www.w3.org/1999/xlink" x="0px" y="0px"
	 viewBox="0 0 437.13 437.13" style="enable-background:new 0 0 437.13 437.13;" xml:space="preserve">
<g>
	<path d="M126.489,410.13H83.742v-64.403c0-17.011,3.486-32.555,6.928-43.765l27.183,72.492c1.368,3.649,4.847,5.986,8.631,5.986
		c0.546,0,1.098-0.049,1.651-0.149c4.388-0.795,7.578-4.616,7.578-9.076V225.931h48.749c7.633,0,13.843-5.964,13.843-13.294v-61.996
		c0-7.33-6.21-13.294-13.843-13.294h-48.749V9.224c0-4.459-3.19-8.28-7.578-9.076c-4.382-0.793-8.716,1.662-10.282,5.837L82.6,100
		H66.493c-5.094,0-9.224,4.129-9.224,9.224v161.992c0,5.094,4.129,9.224,9.224,9.224h3.095
		c-4.834,12.213-12.846,36.754-12.846,65.288v64.403H38.641c-7.456,0-13.5,6.044-13.5,13.5c0,7.456,6.044,13.5,13.5,13.5h87.849
		c7.456,0,13.5-6.044,13.5-13.5C139.989,416.174,133.945,410.13,126.489,410.13z M179.116,149.083l-39.126,33.144l-4.276-3.623
		v-29.521H179.116z"/>
	<path d="M202.594,116.731h63.942c5.487,0,9.952-4.288,9.952-9.557V62.605c0-5.269-4.464-9.557-9.952-9.557h-63.942
		c-5.487,0-9.952,4.288-9.952,9.557v44.568C192.642,112.443,197.107,116.731,202.594,116.731z M262.693,61.485l-28.128,23.827
		l-28.127-23.827H262.693z"/>
	<path d="M318.411,229.27v-44.568c0-5.27-4.464-9.557-9.952-9.557h-63.942c-5.487,0-9.952,4.288-9.952,9.557v44.568
		c0,5.27,4.464,9.557,9.952,9.557h63.942C313.946,238.827,318.411,234.54,318.411,229.27z M304.616,183.582l-28.128,23.827
		l-28.128-23.827H304.616z"/>
	<path d="M219.99,251.975h-43.37c-3.722,0-6.749,2.908-6.749,6.482v30.229c0,3.575,3.027,6.482,6.749,6.482h43.37
		c3.722,0,6.749-2.907,6.749-6.482v-30.229C226.739,254.883,223.712,251.975,219.99,251.975z M217.383,257.697l-19.079,16.162
		l-19.078-16.162H217.383z"/>
	<path d="M343.471,166.625h43.37c3.722,0,6.749-2.907,6.749-6.482v-30.229c0-3.574-3.027-6.482-6.749-6.482h-43.37
		c-3.722,0-6.749,2.908-6.749,6.482v30.229C336.722,163.717,339.75,166.625,343.471,166.625z M384.235,129.154l-19.079,16.162
		l-19.078-16.162H384.235z"/>
	<path d="M398.713,258.199h-85.307c-7.321,0-13.277,5.72-13.277,12.75v59.459c0,7.03,5.956,12.75,13.277,12.75h85.307
		c7.321,0,13.277-5.721,13.277-12.75V270.95C411.989,263.92,406.033,258.199,398.713,258.199z M393.585,269.455l-37.526,31.788
		l-37.525-31.788H393.585z"/>
</g>
<g>
</g>
<g>
</g>
<g>
</g>
<g>
</g>
<g>
</g>
<g>
</g>
<g>
</g>
<g>
</g>
<g>
</g>
<g>
</g>
<g>
</g>
<g>
</g>
<g>
</g>
<g>
</g>
<g>
</g>
</svg>
