<?xml version="1.0" encoding="iso-8859-1"?>
<!-- Generator: Adobe Illustrator 18.0.0, SVG Export Plug-In . SVG Version: 6.00 Build 0)  -->
<!DOCTYPE svg PUBLIC "-//W3C//DTD SVG 1.1//EN" "http://www.w3.org/Graphics/SVG/1.1/DTD/svg11.dtd">
<svg version="1.1" id="Capa_1" xmlns="http://www.w3.org/2000/svg" xmlns:xlink="http://www.w3.org/1999/xlink" x="0px" y="0px"
	 viewBox="0 0 370 370" style="enable-background:new 0 0 370 370;" xml:space="preserve">
<g>
	<path d="M336.857,33.144c-44.192-44.192-116.097-44.192-160.286,0c-23.052,23.052-34.987,54.748-32.948,87.259L21.914,242.111
		c-29.218,29.22-29.218,76.759,0,105.976c29.217,29.218,76.756,29.218,105.974,0l121.71-121.71
		c32.51,2.039,64.206-9.893,87.259-32.946C381.047,149.24,381.047,77.336,336.857,33.144z M94.771,314.97
		c-10.956,10.957-28.784,10.957-39.74,0.001c-10.957-10.957-10.957-28.783,0-39.74l112.598-112.599l39.74,39.739L94.771,314.97z
		 M321.94,152.021L217.979,48.06c29.623-17.647,67.652-13.154,92.385,11.576C335.093,84.369,339.587,122.398,321.94,152.021z"/>
	<path d="M150.735,202.708l-20.855,20.855c-4.567,4.565-4.574,11.983,0,16.558c4.575,4.574,11.991,4.567,16.558,0l20.855-20.854
		c4.567-4.568,4.574-11.985,0-16.559C162.718,198.134,155.302,198.139,150.735,202.708z"/>
</g>
<g>
</g>
<g>
</g>
<g>
</g>
<g>
</g>
<g>
</g>
<g>
</g>
<g>
</g>
<g>
</g>
<g>
</g>
<g>
</g>
<g>
</g>
<g>
</g>
<g>
</g>
<g>
</g>
<g>
</g>
</svg>
