<?xml version="1.0" encoding="iso-8859-1"?>
<!-- Generator: Adobe Illustrator 18.0.0, SVG Export Plug-In . SVG Version: 6.00 Build 0)  -->
<!DOCTYPE svg PUBLIC "-//W3C//DTD SVG 1.1//EN" "http://www.w3.org/Graphics/SVG/1.1/DTD/svg11.dtd">
<svg version="1.1" id="Capa_1" xmlns="http://www.w3.org/2000/svg" xmlns:xlink="http://www.w3.org/1999/xlink" x="0px" y="0px"
	 viewBox="0 0 390 390" style="enable-background:new 0 0 390 390;" xml:space="preserve">
<path d="M368.715,148.811c-9.456-10.258-21.26-17.779-34.274-22.01c-5.101-37.746-37.533-66.943-76.655-66.943
	c-3.316,0-6.616,0.211-9.885,0.629c-19.192-21.121-46.517-33.4-75.441-33.4c-25.854,0-50.508,9.697-69.422,27.309
	c-14.585,13.578-24.731,30.889-29.459,49.891C31.732,112.256,0,149.113,0,193.242c0,49.941,40.626,90.572,90.562,90.572h2.249
	c-3.156,6.955-4.864,14.547-4.864,22.369c0,31.281,26.896,56.73,59.955,56.73c22.086,0,41.944-11.328,52.354-29.008
	c10.996,10.121,25.924,16.086,41.842,16.086c33.059,0,59.955-25.447,59.955-56.727v-9.451h7.466
	c44.377,0,80.481-36.109,80.481-80.492C390,183.059,382.441,163.699,368.715,148.811z M277.053,293.266
	c0,17.494-15.681,31.727-34.955,31.727c-14.059,0-26.687-7.588-32.181-19.334c-0.222-0.459-0.433-0.928-0.628-1.4
	c-1.564-3.646-2.357-7.484-2.357-11.406c0-17.357,15.556-31.479,34.676-31.479l10.231,0.004v-67.123l-68.771,0.178v111.205
	c0,3.326-0.575,6.611-1.707,9.764c-0.04,0.113-0.079,0.225-0.119,0.338c-4.609,13.268-18,22.176-33.34,22.176
	c-19.274,0-34.955-14.232-34.955-31.73c0-11.289,6.695-21.813,17.477-27.473c0.083-0.045,0.167-0.088,0.251-0.131l0.03-0.016
	c5.342-2.883,11.458-4.402,17.687-4.402l9.937-0.012v-92.654c0-6.748,5.488-12.252,12.235-12.268l94.191-0.244
	c3.303,0,6.379,1.271,8.694,3.582c2.326,2.316,3.605,5.4,3.605,8.684V293.266z"/>
<g>
</g>
<g>
</g>
<g>
</g>
<g>
</g>
<g>
</g>
<g>
</g>
<g>
</g>
<g>
</g>
<g>
</g>
<g>
</g>
<g>
</g>
<g>
</g>
<g>
</g>
<g>
</g>
<g>
</g>
</svg>
