<?xml version="1.0" encoding="UTF-8" standalone="no"?>
<!-- Generator: Adobe Illustrator 18.0.0, SVG Export Plug-In . SVG Version: 6.00 Build 0)  -->

<svg
   xmlns:dc="http://purl.org/dc/elements/1.1/"
   xmlns:cc="http://creativecommons.org/ns#"
   xmlns:rdf="http://www.w3.org/1999/02/22-rdf-syntax-ns#"
   xmlns:svg="http://www.w3.org/2000/svg"
   xmlns="http://www.w3.org/2000/svg"
   xmlns:sodipodi="http://sodipodi.sourceforge.net/DTD/sodipodi-0.dtd"
   xmlns:inkscape="http://www.inkscape.org/namespaces/inkscape"
   version="1.1"
   id="Artwork"
   x="0px"
   y="0px"
   viewBox="0 0 800 800"
   enable-background="new 0 0 800 800"
   xml:space="preserve"
   inkscape:version="0.48.5 r10040"
   width="100%"
   height="100%"
   sodipodi:docname="up224.svg"><metadata
   id="metadata3695"><rdf:RDF><cc:Work
       rdf:about=""><dc:format>image/svg+xml</dc:format><dc:type
         rdf:resource="http://purl.org/dc/dcmitype/StillImage" /><dc:title></dc:title></cc:Work></rdf:RDF></metadata><defs
   id="defs3693" /><sodipodi:namedview
   pagecolor="#ffffff"
   bordercolor="#666666"
   borderopacity="1"
   objecttolerance="10"
   gridtolerance="10"
   guidetolerance="10"
   inkscape:pageopacity="0"
   inkscape:pageshadow="2"
   inkscape:window-width="640"
   inkscape:window-height="480"
   id="namedview3691"
   showgrid="false"
   inkscape:zoom="0.64875"
   inkscape:cx="400"
   inkscape:cy="400"
   inkscape:window-x="0"
   inkscape:window-y="0"
   inkscape:window-maximized="1"
   inkscape:current-layer="Artwork" />
<path
   d="m 81.07572,547.43121 c 0,22.7 18.3,41.2 41.2,41.2 l 341.5,0 -144.9,144.9 c -16,16 -16,42.1 0,58.4 l 38.9,38.9 c 16,16 42.1,16 58.4,0 l 281.5,-281.5 c 8,-8 12.1,-18.5 12.1,-29.1 0,-10.5 -4.1,-21.1 -12.1,-29.1 l -281.5,-281.5 c -16,-16 -42.1,-16 -58.4,0 l -38.9,38.9 c -16,16 -16,42.1 0,58.4 l 144.9,144.4 -341.3,0 c -22.699999,0 -41.199999,18.5 -41.199999,41.2 l -0.200001,54.9 z"
   id="path3689"
   inkscape:connector-curvature="0" />
</svg>