<?xml version="1.0" encoding="iso-8859-1"?>
<!-- Generator: Adobe Illustrator 18.0.0, SVG Export Plug-In . SVG Version: 6.00 Build 0)  -->
<!DOCTYPE svg PUBLIC "-//W3C//DTD SVG 1.1//EN" "http://www.w3.org/Graphics/SVG/1.1/DTD/svg11.dtd">
<svg version="1.1" id="Capa_1" xmlns="http://www.w3.org/2000/svg" xmlns:xlink="http://www.w3.org/1999/xlink" x="0px" y="0px"
	 viewBox="0 0 346.657 346.657" style="enable-background:new 0 0 346.657 346.657;" xml:space="preserve">
<path d="M314.976,173.328c0-27.803-18.193-51.425-43.297-59.621v-93.72c0-7.312-3.99-14.038-10.402-17.541
	c-6.414-3.505-14.232-3.226-20.383,0.72L104.12,90.984H59.66c-15.453,0-27.979,12.53-27.979,27.981v108.727
	c0,15.449,12.527,27.979,27.979,27.979h44.46l136.775,87.817c3.281,2.105,7.035,3.168,10.803,3.168c3.287,0,6.588-0.814,9.58-2.449
	c6.412-3.5,10.402-10.226,10.402-17.539v-93.719C296.783,224.753,314.976,201.131,314.976,173.328z M271.68,205.149v-63.641
	c10.711,6.559,17.873,18.368,17.873,31.82C289.553,186.781,282.391,198.59,271.68,205.149z"/>
<g>
</g>
<g>
</g>
<g>
</g>
<g>
</g>
<g>
</g>
<g>
</g>
<g>
</g>
<g>
</g>
<g>
</g>
<g>
</g>
<g>
</g>
<g>
</g>
<g>
</g>
<g>
</g>
<g>
</g>
</svg>
